# xmcd CD database file
#
# Track frame offsets:
#	150
#	30866
#	51928
#	72381
#	98075
#	123050
#	150222
#	179187
#	198249
#	227012
#	242510
#	260540
#	286168
#	316868
#	334408
#
# Disc length: 4666 seconds
#
# Revision: 1
# Processed by: cddbd v1.5.2PL0 Copyright (c) Steve Scherf et al.
# Submitted via: CDex 1.51
#
DISCID=c512380f
DTITLE=Billie Holiday - Songs for Distingué Lovers
DYEAR=2011
DGENRE=Jazz
TTITLE0=Day In, Day Out
TTITLE1=A Foggy Day
TTITLE2=Stars Fell On Alabama
TTITLE3=One For My Baby (And One More For The Old Road)
TTITLE4=Just One Of These Things
TTITLE5=I Didn't Know What Time It Was
TTITLE6=Body And Soul
TTITLE7=They Can't Take That Away From Me
TTITLE8=Darn That Dream
TTITLE9=Let's Call The Whole Thing Off
TTITLE10=Comes Love
TTITLE11=Gee, Baby, Ain't I Good To You
TTITLE12=Embraceable You
TTITLE13=Moonlight In Vermont
TTITLE14=I Wished On The Moon
EXTD=YEAR: 2011
EXTT0=
EXTT1=
EXTT2=
EXTT3=
EXTT4=
EXTT5=
EXTT6=
EXTT7=
EXTT8=
EXTT9=
EXTT10=
EXTT11=
EXTT12=
EXTT13=
EXTT14=
PLAYORDER=
